<?xml version="1.0" encoding="UTF-8"?>
<svg id="Capa_2" data-name="Capa 2" xmlns="http://www.w3.org/2000/svg" viewBox="0 0 203.67 210.82">
  <defs>
    <style>
      .cls-1 {
        fill: #9b1734;
      }
    </style>
  </defs>
  <g id="Capa_1-2" data-name="Capa 1">
    <path class="cls-1" d="M192.13,100.75c2.18-7,8.01-11.82,10.02-18.76,2.27-7.83,1.89-16.27-.44-24.27-1.81-6.21-4.78-12.09-8.63-17.28-3.94-5.31-9.14-9.76-14.55-13.53-2.07-1.44-3.93-2.86-6.32-3.7-2.19-.77-4.49-1.21-6.78-1.57-9.13-1.43-14.69,1.07-22.64,4.22-7.68,3.05-11.65.31-15.81-6.25-5.9-9.3-17.13-17.44-28.06-19.04-3.41-.5-6.86-.65-10.3-.53-6.88.24-13.8,1.51-20.23,3.98-1.49.57-2.95,1.21-4.37,1.93-7.44,3.77-15.19,11.35-19.04,18.77-4.93,9.49,1.24,29.41-10.05,34.6-4.98,2.29-10.28,1.7-15.44,5.13C.39,77.15-5.07,104.75,4.87,124.87c3.3,6.68,8.29,12.52,14.34,16.87,6.14,4.42,14.27,6.01,18.96,12.39,5.26,7.15,2.49,19.31,5.69,27.68,4.41,11.51,14.29,20.06,25.49,24.72,11.3,4.7,24.42,5.81,36.13,1.98,2.53-.83,5.08-1.74,7.37-3.13,2.15-1.31,4.04-3.22,5.88-4.94,4.45-4.17,6.45-9.81,11.97-12.4,7.61-3.57,17.23-2.31,25.86.06,1.34.04,2.7.16,4.05.4,9.72,1.72,16.42-3.18,23.91-8.32,7.51-5.16,13.42-12.67,16.53-21.24,4.16-11.48,2.22-21.74-1.26-32.96-2.75-8.87-10.8-15.12-7.66-25.22ZM87.81,123.25c-7.09,2.23-15.07-3.01-17.8-11.71-2.74-8.7.79-17.57,7.89-19.8,7.09-2.23,15.07,3.01,17.8,11.71,2.74,8.7-.79,17.57-7.89,19.8ZM133.86,108.76c-7.09,2.23-15.07-3.01-17.8-11.71-2.74-8.7.79-17.56,7.89-19.8,7.1-2.23,15.07,3.01,17.8,11.71,2.74,8.7-.79,17.57-7.89,19.8Z"/>
  </g>
</svg>