<?xml version="1.0" encoding="UTF-8"?>
<svg id="Capa_2" data-name="Capa 2" xmlns="http://www.w3.org/2000/svg" viewBox="0 0 289.45 278.9">
  <defs>
    <style>
      .cls-1 {
        fill: #9b1734;
      }

      .cls-2 {
        fill: none;
        stroke: #9b1734;
        stroke-miterlimit: 10;
        stroke-width: 3px;
      }
    </style>
  </defs>
  <g id="Capa_1-2" data-name="Capa 1">
    <g>
      <g>
        <g>
          <path class="cls-1" d="M201.6,115.99s-.08-.06-.13-.09c-1.38-.83-2.25,1.47-2.59,2.32-1.34,3.3-4.99,5.74-8.14,7.1-3.14,1.36-6.72,1.81-10.03.8-2.68-.82-4.67-2.92-4.69-5.79-.02-2.46,1.26-4.88,2.13-7.12.17-.44.34-.89.4-1.36.05-.47-.03-.97-.32-1.35-.45-.58-1.32-.7-2-.43-.68.27-1.19.86-1.56,1.49-.71,1.22-.55,2.47-.71,3.8-.17,1.32-.56,2.61-1.15,3.8-.92,1.87-2.3,3.52-4.01,4.72-1.55,1.08-3.05,2.3-4.96,2.7-3.53.74-6.08-1.68-5.99-5.2.05-2.61.99-5.22,2.34-7.43.25-.4.5-.82.56-1.29.06-.47-.15-1.01-.59-1.18-.35-.14-.74-.03-1.1.08-2.21.7-4.42,1.54-6.75,1.75-.88.08-1.8.22-2.67.07-1.18-.21-2.28-.61-3.4.28-.56.44-.93,1.08-1.11,1.78-.95,3.71-2.04,11.2-7.48,11.96-2.59.35-4.92-1.1-6.54-3.08-.91-1.1-1.9-2.38-2.18-3.52-.21-.85-.05-1.74.23-2.57.34-1.01.84-2,1.42-2.89.72-1.11,1.55-2.29,1.54-3.67,0-.88-.45-1.83-1.31-2.16-1.15-.45-2.04.33-2.39,1.24-.44,1.12-.36,2.39-.74,3.55-.66,2.37-1.93,4.27-3.5,6.11-2.52,2.96-6.08,4.77-9.66,6.13-2.13.81-4.46.76-6.69.43-1.23-.18-3.13-1.18-3.37-2.57-.15-.86.14-2.01.91-2.49.8-.5,2.48-.28,3.46-.49,2.62-.57,5.12-1.73,7.23-3.4,1.43-1.13,3.18-3.28,2.31-5.22-1.93-4.35-10.44-1.19-12.99.72-3.83,2.86-6.18,8.64-2.87,12.74,1.52,1.89,3.98,2.95,6.37,3.11.39.03.78.04,1.17.04,2.79,0,5.58-.65,8.09-1.88,1.46-.71,2.87-1.52,4.36-2.16,1.4-.61,3.27-1.56,4.64-.47,2.98,2.77,5.23,5.19,9.66,5.16,7.26.08,9.46-8.14,11.03-12.51.37-1,1.09-1.36,2.19-1.51.88-.12,2.13-.25,3.1-.16,2.49.11,1.75,2.68,1.7,4.42-.46,8.87,8.57,12.24,15.18,6.33.88-.8,1.98-1.79,3.25-1.78,1.22.01,2.23,1.13,3.23,1.71,2.42,1.42,4.35,2.86,7.29,3,4.09.2,8.08-1.41,11.46-3.59,2.5-1.62,4.6-3.83,5.94-6.5.37-.73,1.29-2.71.41-3.45ZM105.96,117.97c.15-.53.67-1.14.92-1.45.96-1.18,2.41-2.19,3.88-2.6,1.04-.29,5.12-1.93,5.47.03.11.59-.66,1.24-1.06,1.55-1.39,1.09-2.96,1.94-4.63,2.52-1.15.4-2.93,1.21-4.16.8-.47-.16-.54-.49-.43-.86Z"/>
          <path class="cls-1" d="M98.49,123.87c-1.16.42-1.13,1.86-2.81,1.9-2.72.07-4.32-3.28-5.26-5.28-1.05-2.24-2.28-4.39-3.33-6.62-.79-1.48-1.71-3.7-3.57-4.03-2.18-.1-3.66,1.55-4.63,3.31-.68,1.25-1.05,2.66-1.83,3.86-1.08,1.66-1.95,1.45-2.83-.26-.42-.83-.92-1.6-1.47-2.35-3.89-5.36-9.78-2.09-13.06,3.61,0,0-.01.02-.02.02-.99,1.43-3.1,1.45-4.05,0-.2-.31-.4-.59-.58-.8-1.18-1.35-2.63-2.58-4.31-3.26-1.42-.58-3.06-.94-4.58-.55-1.04.27-3.03,1.33-2.75,2.67.12.57.67,1.02,1.26,1.01.53,0,1-.33,1.49-.55,3.16-1.4,7.33,2.8,8.39,5.47.68,1.7.92,3.79,1.14,5.6.14,1.23.46,2.63,2.2,2.14,1.52-.42,1.28-1.95,1.43-3.15.2-1.59.74-3.12,1.3-4.61,1.17-3.1,3.94-8.66,8.22-7.16,2.5.88,3.53,3.61,4.13,5.96.35,1.37.59,2.77.85,4.16.23,1.24.28,3.16.92,4.23.35.58,1.19.79,1.77.43.84-.52.65-1.89.69-2.74.06-1.25.2-2.5.44-3.73.46-2.39,1.22-4.82,2.54-6.89.9-1.4,2.17-2.42,3.75-1.31,1.39.98,2.08,3.14,2.87,4.59,1.53,2.78,2.86,7.01,5.86,8.59,2.5,1.32,6.4,1.24,7.47-1.84.11-.33.16-.69.14-1.03-.07-.97-.68-1.79-1.78-1.4Z"/>
          <path class="cls-1" d="M132.36,106.46c3.33,1.27,6.94-4.9,1.95-4.66h-.06c-.78.08-1.56.4-2.26.85-1.87,1.05-1.22,2.97.37,3.81Z"/>
          <path class="cls-1" d="M179.04,106.36c3.33,1.27,6.94-4.9,1.95-4.66h-.06c-.78.08-1.56.4-2.26.85-1.87,1.05-1.22,2.97.37,3.81Z"/>
        </g>
        <path class="cls-1" d="M245.82,164.73c-.04-.06-.08-.11-.14-.16-.47-.47-1.28-.42-1.85-.08s-.95.92-1.32,1.47c-2.41,3.6-5.02,6.33-9.3,7.47-3.63.97-7.99.82-10.94-1.77-2.13-1.87-4.84-5.92-2.66-8.53.8-1.02,1.59-2.09,2.31-3.19,2.27-3.36,3.82-7.02,4.19-11.18.43-3.83-.29-7.96-5.13-6.14-5.64,2.29-7.98,11.32-8.15,17.07-.16,2.51,1.73,5.5-.29,7.53-1.14,1.07-2.83,2.19-4.14,3.26-3.81,3.1-9.03,3.15-13.34,1.07-.94-.45-1.87-1.07-2.29-2.03-.81-1.84.04-4.41,1.2-5.89,3.36-4.26,5.98-9.16,7.77-14.32.73-2.11,2.35-5.88.45-7.81-1.95-1.98-4.43-.33-6.01,1.16-2.94,2.76-5.4,6.17-6.95,9.9-1.14,2.75-1.29,5.83-1.13,8.77.15,2.89.36,4.99-1.36,7.54-.8,1.18-1.93,2.1-3.1,2.92-1.04.73-2.16,1.41-3.4,1.67-.41.09-2.44.32-2.68-.18-.04-.08-.02-.16,0-.25.52-.74.92-1.6,1.07-2.43.16-.92,0-1.99-.49-2.8-.43-.72-.73-1.2-.37-2.1.31-.77,1.02-1.26,1.31-2.03.33-.87.37-1.82.18-2.75-.15-.72-.42-1.41-.81-2.04-.4-.64-.94-1.19-1.52-1.67-.22-.18-.42-.36-.68-.48-.24-.11-.5-.18-.75-.24-1.02-.25-1.67-.02-2.6.26s-1.32-.08-1.73-.86c-.58-1.11-1.77-2.14-2.99-2.43-.38-.09-.77-.14-1.16-.16-.78-.04-1.58.04-2.33.26-.17.05-.35.11-.51.18-.88.36-1.83,1.14-2.34,1.94-.65,1.03-.14,3.34-1.47,3.82-.59.21-1.18.09-1.8.43-1.26.69-2.2,2-2.45,3.42-.08.46-.12.9-.11,1.35-.21.43-.4.87-.62,1.3-1.04,2.01-11.33,12.51-12.39,6.01-.7-4.28.56-8.74,1.88-12.77,1.4-4.3,3.36-8.5,5.39-12.5.72-1.41,1.55-2.7,2.03-4.24.15-.49.27-1.06-.02-1.48-.31-.44-.97-.52-1.47-.29-.49.22-.85.66-1.17,1.1-1.49,2.08-2.23,4.85-3.38,7.17-1.06,2.15-2.16,4.57-3.64,6.47-.73.94-1.46.12-2.37-.23-1.07-.4-2.25-.55-3.38-.35-2.77.5-5.28,2.56-7.25,5.96-2.18,3.75-4.14,8.31-3.37,12.75.24,1.39,1.48,2.46,2.9,2.66,1.69.23,3.15-.97,4.17-2.18,2.71-3.22,5.15-6.63,7.4-10.15-.39,1.99-.65,4.03-.77,6.15-.18,3.2.64,5.33,2.45,6.35.65.37,1.37.55,2.14.55,1.64,0,2.86-.75,4.18-1.57,1.4-.87,2.75-1.75,4.01-2.83,1.58-1.35,3.02-2.87,4.36-4.47.72.89,2.15,1.21,2.74,2.16.53.86.1,2.21.38,3.19.39,1.35,1.42,2.41,2.65,3.04,1.23.64,2.71.89,4.07.57.29-.07.59-.15.86-.28.26-.13.49-.33.71-.5.54-.43.82-1.05,1.47-1.29,1.22-.45,2.78.15,3.91.66.66.3,1.39.57,2.09.78,3.54,1.05,6.56-1.34,9.6-2.71,1.6-.72,3.12-.99,4.86-.88,2.29.15,4.49,1.71,6.65,2.47,3.89,1.37,7.67.55,11.11-1.56,1.45-.89,2.81-1.95,4.41-2.53,4.32-1.57,7.41,3.09,11.18,4.52,8.17,3.11,17.21-1.43,21.65-8.54.47-.75.86-1.8.38-2.48ZM138.64,161.56c-.77,1.23-1.56,2.44-2.38,3.64-.77,1.12-1.68,2.16-2.33,3.35-.43.77-.89,1.53-1.41,2.23-.72.98-2.51,3.06-3.25.95-.82-2.36.87-5.97,2.07-7.98,1.05-1.77,2.17-3.68,3.87-4.91.7-.51,1.77-1,2.71-.94.58.04,1.12.29,1.48.89.69,1.13-.21,1.88-.76,2.77ZM165.74,167.25c-.82.18-1.68-.49-1.9-1.5s.26-1.98,1.08-2.17c.82-.18,1.68.49,1.9,1.5.23,1.01-.26,1.98-1.08,2.17ZM171.09,166.05c-.82.18-1.68-.49-1.9-1.5-.23-1.01.26-1.98,1.08-2.17.82-.18,1.68.49,1.9,1.5.23,1.01-.26,1.98-1.08,2.17ZM192.1,160.74c-.6-.16-.79-.9-.83-1.52-.28-4.45,1.51-9.58,4.81-12.63.54-.5,1.16-.97,1.89-1.08,1.81-.26,1.3,2.49,1.09,3.48-.83,3.9-3.36,7.87-5.67,11.06-.27.37-.68.71-1.11.71-.06,0-.13,0-.19-.03ZM217.17,160.29c-1.09-.48-.92-2.42-.86-3.37.2-3.21,1.18-8.96,4.86-10.07.46-.14,1-.11,1.39.18.58.44.65,1.27.61,2-.17,3.42-1.52,6.41-3.41,9.2-.37.55-.63,1.21-1.12,1.68-.04.04-.09.08-.14.12-.38.3-.91.46-1.35.27Z"/>
      </g>
      <path class="cls-2" d="M252.58,80.21c-2.25,4.01.7,8.87,5.3,8.73,6.73-.21,13.33,1.37,18.78,5.92,11.44,9.53,14.58,27.42,7.62,40.58-2.45,4.63-5.76,8.73-9.76,12.12-2.68,2.27-9.17,4.23-10.52,7.35-2.34,5.41,6.15,8.25,9.05,11.39,4.03,4.38,6.97,10.06,8.23,15.88,3.22,14.86-4.79,31.42-18.44,38.12-4.5,2.21-9.55,3.21-14.55,3.17-5.02-.04-11.72-4.24-12.82,3.37-.62,4.25,2.48,8.58,2.09,12.79-.99,10.86-8.21,20.62-17.67,26.07-9.46,5.44-20.87,6.87-31.69,5.44-10.84-1.43-20.95-5.31-28.08-12.52-2.78-2.81-7.51-1.93-9.28,1.6-1.65,3.28-4.04,6.24-6.88,8.56-6.05,4.95-13.86,7.33-21.62,8.24-14.77,1.71-30.73-2.05-41.23-12.57-6.39-6.4-10.06-15.13-10.11-23.78-.03-4.2-4.37-7.07-8.18-5.31-10.18,4.72-22.82,4.66-32.79-.77-14.98-8.16-23.06-26.47-20.86-43.39.72-5.48,2.42-10.9,5.29-15.65,2.67-4.4,5.86-5.45,9.35-8.61,8.48-7.69-3.27-9.56-7.71-13.24-4.67-3.86-8.2-9.13-10.79-14.57-6.34-13.33-4.63-30.13,4.28-41.9,6.77-8.94,17.75-14.93,29.02-16.2,4-.45,6.43-4.7,4.64-8.31-4.57-9.19-5.27-20.36-1.4-29.9,5.19-12.8,18.3-21.97,32.1-22.46,10.27-.36,21.31,3.75,28.8,10.98,2.89,2.8,7.75,1.8,9.33-1.9,4.95-11.63,14.59-21.3,26.41-25.87,13.82-5.35,30.69.19,40.69,10.72,4.9,5.16,8.34,11.63,10.04,18.54,1.04,4.26,6.19,5.81,9.51,2.95,7.62-6.58,17.87-9.72,28.25-7.99,15.1,2.52,27.81,15.62,29.87,30.79,1,7.34-.63,14.88-4.12,21.37-.05.09-.1.18-.14.26Z"/>
    </g>
  </g>
</svg>